<svg height="512pt" viewBox="-31 0 512 512" width="512pt" xmlns="http://www.w3.org/2000/svg"><path d="m315 421h-60c-8.289062 0-15-6.710938-15-15s6.710938-15 15-15h60c24.8125 0 45-20.1875 45-45 0-8.289062 6.710938-15 15-15s15 6.710938 15 15c0 41.351562-33.648438 75-75 75zm0 0" fill="#913f02"/><path d="m195 451h-30c-41.351562 0-75-33.648438-75-75 0-8.289062 6.710938-15 15-15s15 6.710938 15 15c0 24.8125 20.1875 45 45 45h30c8.289062 0 15 6.710938 15 15s-6.710938 15-15 15zm0 0" fill="#d55f05"/><path d="m270 340.601562v150.699219h-90v-150.699219c0-8.101562 6.597656-15 15-15h60c8.402344 0 15 6.898438 15 15zm0 0" fill="#d97f4a"/><path d="m270 340.601562v150.699219h-45v-165.699219h30c8.402344 0 15 6.898438 15 15zm0 0" fill="#d55f05"/><path d="m135 391h-60c-24.8125 0-45-20.1875-45-45s20.1875-45 45-45h60c24.8125 0 45 20.1875 45 45s-20.1875 45-45 45zm0 0" fill="#009954"/><path d="m345 61c-2.699219 0-5.398438 0-8.101562.300781-24.898438-37.5-66.898438-61.300781-111.898438-61.300781s-87 23.800781-111.898438 61.300781c-2.101562 0-4.199218-.300781-6.300781-.300781h-1.800781c-57.898438 0-105 47.101562-105 105 0 40.5 23.699219 77.398438 60 94.5 2.402344 55.800781 48.601562 100.5 105 100.5 21.300781 0 42.300781-6.601562 60-19.199219 17.699219 12.597657 38.699219 19.199219 60 19.199219 15.902344 0 31.199219-3.300781 45.300781-10.199219l33.597657-16.199219c3.601562-1.800781 6.300781-4.800781 7.800781-8.402343l12.300781-35.101563c3.601562-9.898437 5.398438-20.097656 6-30.601562 36.300781-17.097656 60-54 60-94.496094 0-57.898438-47.101562-105-105-105zm0 0" fill="#c3ea21"/><path d="m450 166c0 40.5-23.699219 77.398438-60 94.5-.601562 10.5-2.402344 20.699219-6 30.601562l-12.300781 35.097657c-1.5 3.601562-4.199219 6.601562-7.800781 8.402343l-33.597657 16.199219c-14.101562 6.898438-29.398437 10.199219-45.300781 10.199219-21.300781 0-42.300781-6.601562-60-19.199219v-341.800781c45 0 87 23.800781 111.898438 61.300781 2.703124-.300781 5.402343-.300781 8.101562-.300781 57.898438 0 105 47.101562 105 105zm0 0" fill="#9cdd05"/><path d="m405 361h-60c-24.8125 0-45-20.1875-45-45s20.1875-45 45-45h60c24.8125 0 45 20.1875 45 45s-20.1875 45-45 45zm0 0" fill="#6b0"/><path d="m165 241c-8.289062 0-15-6.710938-15-15v-30c0-8.289062 6.710938-15 15-15s15 6.710938 15 15v30c0 8.289062-6.710938 15-15 15zm0 0" fill="#9cdd05"/><path d="m315 181c-8.289062 0-15-6.710938-15-15v-30c0-8.289062 6.710938-15 15-15s15 6.710938 15 15v30c0 8.289062-6.710938 15-15 15zm0 0" fill="#6b0"/><path d="m240 76v30c0 8.398438-6.597656 15-15 15s-15-6.601562-15-15v-30c0-8.402344 6.597656-15 15-15s15 6.597656 15 15zm0 0" fill="#9cdd05"/><path d="m225 121v-60c8.402344 0 15 6.597656 15 15v30c0 8.398438-6.597656 15-15 15zm0 0" fill="#6b0"/><path d="m360 497c0 8.398438-6.597656 15-15 15h-240c-8.402344 0-15-6.601562-15-15 0-8.402344 6.597656-15 15-15h240c8.402344 0 15 6.597656 15 15zm0 0" fill="#c3ea21"/><path d="m360 497c0 8.398438-6.597656 15-15 15h-120v-30h120c8.402344 0 15 6.597656 15 15zm0 0" fill="#9cdd05"/><path d="m165 301c-24.8125 0-45-20.1875-45-45s20.1875-45 45-45 45 20.1875 45 45-20.1875 45-45 45zm0 0" fill="#ff637b"/><path d="m225 91c-24.902344 0-45 20.097656-45 45 0 24.898438 20.097656 45 45 45s45-20.101562 45-45c0-24.902344-20.097656-45-45-45zm0 0" fill="#ff637b"/><g fill="#ff001e"><path d="m315 241c-24.8125 0-45-20.1875-45-45s20.1875-45 45-45 45 20.1875 45 45-20.1875 45-45 45zm0 0"/><path d="m225 181v-90c24.902344 0 45 20.097656 45 45 0 24.898438-20.097656 45-45 45zm0 0"/></g></svg>